<svg xmlns="http://www.w3.org/2000/svg" xmlns:xlink="http://www.w3.org/1999/xlink" width="500" zoomAndPan="magnify" viewBox="0 0 375 374.999991" height="500" preserveAspectRatio="xMidYMid meet" version="1.0"><defs><filter x="0%" y="0%" width="100%" height="100%" id="e063cad148"><feColorMatrix values="0 0 0 0 1 0 0 0 0 1 0 0 0 0 1 0 0 0 1 0" color-interpolation-filters="sRGB"/></filter><clipPath id="36d2e313f9"><path d="M 115.257812 142.824219 L 246.179688 142.824219 L 246.179688 216.707031 L 115.257812 216.707031 Z M 115.257812 142.824219 " clip-rule="nonzero"/></clipPath><clipPath id="321c12761b"><path d="M 113.988281 140.859375 L 156 140.859375 L 156 161 L 113.988281 161 Z M 113.988281 140.859375 " clip-rule="nonzero"/></clipPath><mask id="6c52dfccce"><g filter="url(#e063cad148)"><rect x="-37.5" width="450" fill="#000000" y="-37.499999" height="449.999989" fill-opacity="0.15"/></g></mask><clipPath id="2b92c74f2d"><path d="M 0.988281 0.859375 L 42 0.859375 L 42 20.800781 L 0.988281 20.800781 Z M 0.988281 0.859375 " clip-rule="nonzero"/></clipPath><clipPath id="47d9cf366f"><path d="M 0.988281 0.859375 L 42.039062 0.859375 L 42.039062 20.800781 L 0.988281 20.800781 Z M 0.988281 0.859375 " clip-rule="nonzero"/></clipPath><clipPath id="3bd59aab93"><rect x="0" width="43" y="0" height="21"/></clipPath><clipPath id="cd17927362"><path d="M 155.390625 165.628906 L 209.390625 165.628906 L 209.390625 212.128906 L 155.390625 212.128906 Z M 155.390625 165.628906 " clip-rule="nonzero"/></clipPath><clipPath id="2337f88fcc"><path d="M 145.167969 151.496094 L 217.167969 151.496094 L 217.167969 179.996094 L 145.167969 179.996094 Z M 145.167969 151.496094 " clip-rule="nonzero"/></clipPath><clipPath id="13e8d695d2"><path d="M 207.121094 175.824219 L 209.371094 175.824219 L 209.371094 179.574219 L 207.121094 179.574219 Z M 207.121094 175.824219 " clip-rule="nonzero"/></clipPath><clipPath id="d606190c99"><path d="M 207.121094 176.574219 L 207.121094 179.164062 C 207.121094 179.578125 207.457031 179.914062 207.871094 179.914062 L 208.824219 179.914062 C 209.242188 179.914062 209.574219 179.578125 209.574219 179.164062 L 209.574219 176.574219 C 209.574219 176.160156 209.242188 175.824219 208.824219 175.824219 L 207.871094 175.824219 C 207.457031 175.824219 207.121094 176.160156 207.121094 176.574219 Z M 207.121094 176.574219 " clip-rule="nonzero"/></clipPath></defs><rect x="-37.5" width="450" fill="#ffffff" y="-37.499999" height="449.999989" fill-opacity="1"/><rect x="-37.5" width="450" fill="#ffffff" y="-37.499999" height="449.999989" fill-opacity="1"/><g clip-path="url(#36d2e313f9)"><path fill="#a1dcff" d="M 115.257812 142.824219 L 246.277344 142.824219 L 246.277344 216.707031 L 115.257812 216.707031 Z M 115.257812 142.824219 " fill-opacity="1" fill-rule="nonzero"/></g><g clip-path="url(#321c12761b)"><g mask="url(#6c52dfccce)"><g transform="matrix(1, 0, 0, 1, 113, 140)"><g clip-path="url(#3bd59aab93)"><g clip-path="url(#2b92c74f2d)"><path fill="#1b1919" d="M 21.289062 -121.132812 C 21.289062 -121.132812 41.273438 -95.554688 41.273438 -95.554688 C 41.273438 -95.554688 -106.703125 20.054688 -106.703125 20.054688 C -106.703125 20.054688 -126.6875 -5.519531 -126.6875 -5.519531 C -126.6875 -5.519531 21.289062 -121.132812 21.289062 -121.132812 Z M 21.289062 -121.132812 " fill-opacity="1" fill-rule="nonzero"/></g><g clip-path="url(#47d9cf366f)"><path stroke-linecap="butt" transform="matrix(0.0408778, -0.0319372, 0.0319372, 0.0408778, -42.707965, -50.538952)" fill="none" stroke-linejoin="miter" d="M 1809.984767 -312.83552 C 1809.984767 -312.83552 1809.993215 312.893397 1809.993215 312.893397 C 1809.993215 312.893397 -1809.953784 312.854333 -1809.953784 312.854333 C -1809.953784 312.854333 -1810.008593 -312.815245 -1810.008593 -312.815245 C -1810.008593 -312.815245 1809.984767 -312.83552 1809.984767 -312.83552 Z M 1809.984767 -312.83552 " stroke="#1b1919" stroke-width="5" stroke-opacity="1" stroke-miterlimit="4"/></g></g></g></g></g><path fill="#1b1919" d="M 202.25 247.515625 C 202.25 247.515625 159.230469 247.515625 159.230469 247.515625 C 159.230469 247.515625 159.230469 247.511719 159.230469 247.511719 C 159.230469 246.851562 159.359375 246.203125 159.605469 245.597656 C 159.796875 245.113281 160.066406 244.660156 160.398438 244.25 C 161.8125 242.5 162.9375 240.640625 163.722656 238.660156 C 165.03125 235.355469 165.410156 231.703125 164.65625 227.628906 C 164.65625 227.628906 196.425781 227.628906 196.425781 227.628906 C 195.609375 231.445312 196.0625 235.117188 197.636719 238.660156 C 198.480469 240.558594 199.644531 242.421875 201.113281 244.25 C 201.441406 244.660156 201.699219 245.113281 201.890625 245.597656 C 201.914062 245.660156 201.9375 245.722656 201.960938 245.785156 C 202.152344 246.339844 202.25 246.921875 202.25 247.515625 Z M 202.25 247.515625 " fill-opacity="1" fill-rule="nonzero"/><path fill="#1b1919" d="M 201.808594 245.503906 C 201.808594 245.503906 159.523438 245.503906 159.523438 245.503906 C 159.71875 245.019531 159.984375 244.566406 160.320312 244.15625 C 161.734375 242.40625 162.855469 240.550781 163.644531 238.566406 C 163.644531 238.566406 197.554688 238.566406 197.554688 238.566406 C 198.398438 240.464844 199.566406 242.328125 201.03125 244.15625 C 201.359375 244.566406 201.621094 245.019531 201.808594 245.503906 Z M 201.808594 245.503906 " fill-opacity="1" fill-rule="nonzero"/><path fill="#1b1919" d="M 180.769531 139.773438 C 180.273438 139.773438 179.871094 140.175781 179.871094 140.671875 C 179.871094 141.167969 180.273438 141.570312 180.769531 141.570312 C 181.265625 141.570312 181.667969 141.167969 181.667969 140.671875 C 181.667969 140.175781 181.265625 139.773438 180.769531 139.773438 Z M 180.769531 139.773438 " fill-opacity="1" fill-rule="nonzero"/><path fill="#1b1919" d="M 245.25 138.734375 C 245.25 138.734375 116.289062 138.734375 116.289062 138.734375 C 113.851562 138.734375 111.878906 140.609375 111.878906 142.925781 C 111.878906 142.925781 111.878906 225.597656 111.878906 225.597656 C 111.878906 228.050781 113.867188 230.035156 116.316406 230.035156 C 116.316406 230.035156 245.222656 230.035156 245.222656 230.035156 C 247.671875 230.035156 249.660156 228.050781 249.660156 225.597656 C 249.660156 225.597656 249.660156 142.925781 249.660156 142.925781 C 249.660156 140.609375 247.6875 138.734375 245.25 138.734375 Z M 180.652344 139.78125 C 181.238281 139.707031 181.734375 140.199219 181.660156 140.789062 C 181.609375 141.1875 181.285156 141.511719 180.886719 141.5625 C 180.296875 141.636719 179.804688 141.140625 179.878906 140.554688 C 179.929688 140.15625 180.253906 139.832031 180.652344 139.78125 Z M 115.242188 142.734375 C 115.242188 142.734375 246.296875 142.734375 246.296875 142.734375 C 246.296875 142.734375 246.296875 216.449219 246.296875 216.449219 C 246.296875 216.449219 115.242188 216.449219 115.242188 216.449219 C 115.242188 216.449219 115.242188 142.734375 115.242188 142.734375 Z M 115.242188 142.734375 " fill-opacity="1" fill-rule="nonzero"/><path fill="#1b1919" d="M 181.667969 140.671875 C 181.667969 141.167969 181.265625 141.570312 180.769531 141.570312 C 180.273438 141.570312 179.871094 141.167969 179.871094 140.671875 C 179.871094 140.175781 180.273438 139.773438 180.769531 139.773438 C 181.265625 139.773438 181.667969 140.175781 181.667969 140.671875 Z M 181.667969 140.671875 " fill-opacity="1" fill-rule="nonzero"/><g clip-path="url(#cd17927362)"><path fill="#ffffff" d="M 189.046875 212.121094 C 188.460938 212.117188 187.90625 211.976562 187.382812 211.707031 C 185.933594 210.992188 185.46875 209.753906 185.097656 208.757812 C 184.910156 208.230469 184.6875 207.722656 184.421875 207.230469 C 184.128906 206.699219 183.765625 206.214844 183.332031 205.789062 C 182.546875 204.996094 181.910156 204.09375 181.429688 203.082031 C 181.328125 202.882812 181.230469 202.675781 181.144531 202.464844 C 180.070312 202.617188 178.992188 202.695312 177.90625 202.699219 C 175.027344 202.699219 172.703125 202.0625 171.003906 200.808594 C 169.699219 199.84375 168.113281 197.996094 167.417969 194.523438 L 167.257812 194.523438 C 161.332031 194.523438 156.503906 191.457031 155.777344 187.230469 C 155.382812 184.972656 156.296875 182.933594 157.332031 181.441406 C 157.109375 180 157.34375 178.632812 158.03125 177.347656 C 158.59375 176.3125 159.382812 175.492188 160.390625 174.894531 C 160.605469 174.105469 160.9375 173.371094 161.394531 172.691406 C 161.847656 172.015625 162.402344 171.429688 163.050781 170.9375 C 163.699219 170.445312 164.410156 170.074219 165.183594 169.820312 C 165.957031 169.566406 166.75 169.445312 167.5625 169.460938 C 167.660156 169.460938 167.757812 169.460938 167.847656 169.460938 C 168.519531 168.640625 169.335938 168.007812 170.289062 167.558594 C 171.246094 167.113281 172.253906 166.894531 173.304688 166.90625 C 173.773438 166.90625 174.234375 166.949219 174.695312 167.03125 C 175.199219 166.707031 175.730469 166.4375 176.289062 166.226562 C 177.328125 165.828125 178.410156 165.628906 179.523438 165.628906 C 180.59375 165.636719 181.636719 165.800781 182.652344 166.128906 C 183.277344 165.949219 183.914062 165.855469 184.566406 165.855469 C 186.203125 165.855469 187.652344 166.382812 188.914062 167.441406 C 189.25 167.390625 189.585938 167.367188 189.925781 167.363281 C 190.613281 167.363281 191.277344 167.46875 191.929688 167.675781 C 192.835938 167.964844 193.648438 168.429688 194.363281 169.0625 C 194.511719 169.0625 194.667969 169.050781 194.820312 169.050781 C 195.640625 169.042969 196.441406 169.167969 197.222656 169.421875 C 198.003906 169.675781 198.726562 170.046875 199.390625 170.535156 C 200.050781 171.019531 200.621094 171.601562 201.097656 172.273438 C 201.574219 172.945312 201.9375 173.675781 202.179688 174.464844 C 203.128906 174.925781 203.914062 175.585938 204.535156 176.449219 C 205.152344 177.308594 205.53125 178.265625 205.671875 179.320312 C 206.046875 179.589844 206.375 179.914062 206.65625 180.28125 C 206.9375 180.648438 207.160156 181.050781 207.324219 181.488281 C 207.488281 181.921875 207.589844 182.371094 207.625 182.832031 C 207.660156 183.296875 207.628906 183.757812 207.53125 184.210938 C 207.996094 184.84375 208.328125 185.542969 208.53125 186.300781 C 208.851562 187.519531 208.816406 188.722656 208.421875 189.917969 C 209.375 191.808594 209.378906 193.96875 208.371094 195.679688 C 207.867188 196.515625 207.191406 197.171875 206.34375 197.648438 C 205.886719 198.726562 205.222656 199.652344 204.347656 200.425781 C 203.820312 200.882812 201.914062 202.386719 199.582031 202.386719 L 199.386719 202.386719 C 199.035156 202.765625 198.65625 203.109375 198.253906 203.425781 C 196.839844 204.585938 195.234375 205.328125 193.4375 205.648438 C 192.824219 205.761719 192.207031 205.84375 191.582031 205.894531 L 191.648438 206 C 192.105469 206.746094 192.671875 207.671875 192.421875 209.042969 C 192.222656 210.101562 191.480469 211.5 190.015625 211.972656 C 189.699219 212.074219 189.378906 212.121094 189.046875 212.121094 Z M 189.046875 212.121094 " fill-opacity="1" fill-rule="nonzero"/></g><path fill="#d85165" d="M 188.480469 203.167969 C 189.898438 204.25 191.6875 203.941406 193.109375 203.695312 C 194.5625 203.433594 195.863281 202.835938 197.007812 201.898438 C 197.75 201.28125 198.257812 200.859375 198.410156 200.164062 C 198.726562 198.699219 197.207031 197.164062 196.246094 196.488281 C 193.648438 194.644531 188.726562 194.523438 187.21875 197.335938 C 186.273438 199.113281 186.785156 201.882812 188.480469 203.167969 Z M 188.480469 203.167969 " fill-opacity="1" fill-rule="nonzero"/><path fill="#eb586e" d="M 182.414062 200.117188 C 182.609375 200.839844 182.871094 201.535156 183.199219 202.203125 C 184.261719 204.367188 185.089844 204.34375 186.152344 206.269531 C 187.171875 208.121094 187.070312 209.34375 188.253906 209.925781 C 188.625 210.136719 189.019531 210.191406 189.433594 210.082031 C 190.054688 209.886719 190.40625 209.199219 190.503906 208.683594 C 190.671875 207.746094 190.015625 207.296875 189.339844 205.878906 C 188.574219 204.269531 188.445312 202.789062 188.320312 201.394531 C 188.238281 200.46875 188.234375 199.542969 188.3125 198.621094 " fill-opacity="1" fill-rule="nonzero"/><path fill="#f5abbb" d="M 169.105469 192.4375 C 162.941406 193.148438 158.296875 190.207031 157.722656 186.886719 C 157.367188 184.820312 158.640625 182.902344 159.457031 181.90625 C 159.265625 181.304688 159.195312 180.695312 159.25 180.066406 C 159.300781 179.441406 159.472656 178.847656 159.765625 178.292969 C 160.300781 177.320312 161.085938 176.636719 162.113281 176.234375 C 162.304688 174.773438 162.964844 173.570312 164.09375 172.628906 C 166.109375 170.992188 168.496094 171.503906 168.796875 171.570312 C 169.246094 170.746094 169.871094 170.089844 170.671875 169.601562 C 172.65625 168.414062 174.746094 169.058594 175.101562 169.175781 C 175.675781 168.710938 176.304688 168.347656 176.992188 168.085938 C 179.519531 167.113281 181.867188 167.929688 182.648438 168.242188 C 183.132812 168.03125 183.636719 167.90625 184.164062 167.863281 C 184.6875 167.816406 185.203125 167.859375 185.714844 167.984375 C 186.226562 168.113281 186.703125 168.316406 187.148438 168.597656 C 187.59375 168.882812 187.984375 169.230469 188.316406 169.640625 C 188.78125 169.46875 189.261719 169.375 189.757812 169.359375 C 190.253906 169.34375 190.742188 169.402344 191.21875 169.539062 C 191.695312 169.675781 192.136719 169.882812 192.550781 170.160156 C 192.960938 170.4375 193.320312 170.773438 193.628906 171.164062 C 195.121094 170.855469 196.523438 171.097656 197.835938 171.882812 C 200.050781 173.246094 200.46875 175.601562 200.515625 175.960938 C 201.007812 176.089844 201.464844 176.300781 201.882812 176.589844 C 202.300781 176.882812 202.65625 177.234375 202.953125 177.652344 C 203.246094 178.066406 203.464844 178.523438 203.601562 179.015625 C 203.738281 179.507812 203.785156 180.007812 203.75 180.519531 C 203.949219 180.589844 204.136719 180.679688 204.316406 180.789062 C 204.496094 180.902344 204.660156 181.03125 204.8125 181.179688 C 204.960938 181.328125 205.09375 181.492188 205.210938 181.671875 C 205.324219 181.847656 205.417969 182.035156 205.492188 182.234375 C 205.566406 182.433594 205.617188 182.640625 205.644531 182.851562 C 205.671875 183.058594 205.675781 183.269531 205.660156 183.484375 C 205.640625 183.695312 205.597656 183.902344 205.535156 184.101562 C 205.472656 184.304688 205.386719 184.5 205.28125 184.679688 C 205.945312 185.261719 206.390625 185.976562 206.625 186.832031 C 206.914062 187.976562 206.773438 189.066406 206.207031 190.101562 C 207.273438 191.542969 207.453125 193.355469 206.671875 194.679688 C 206.214844 195.414062 205.582031 195.929688 204.769531 196.222656 C 204.453125 197.289062 203.882812 198.191406 203.054688 198.929688 C 201.988281 199.855469 199.820312 201.007812 198.183594 200.050781 C 197.53125 199.636719 197.082031 199.058594 196.835938 198.320312 C 196.355469 198.917969 195.574219 199.671875 194.476562 199.90625 C 192.753906 200.277344 191.703125 199.066406 189.464844 198.832031 C 187.867188 198.664062 186.792969 199.113281 185.53125 199.488281 C 184.265625 199.863281 176.242188 202.214844 172.167969 199.207031 C 171.328125 198.589844 169.503906 196.894531 169.105469 192.4375 Z M 169.105469 192.4375 " fill-opacity="1" fill-rule="nonzero"/><path stroke-linecap="round" transform="matrix(0.196793, 0, 0, 0.198177, 146.989418, 153.208965)" fill="none" stroke-linejoin="round" d="M 263.298348 127.795854 C 264.767214 128.801111 274.294992 135.798488 275.525664 148.590875 C 276.160849 155.903627 274.334691 162.526497 270.027341 168.479195 C 267.665246 165.79851 265.34285 163.157246 263.020454 160.555405 " stroke="#eb586e" stroke-width="4" stroke-opacity="1" stroke-miterlimit="4"/><path stroke-linecap="round" transform="matrix(0.196793, 0, 0, 0.198177, 146.989418, 153.208965)" fill="none" stroke-linejoin="round" d="M 282.393604 194.142814 C 282.98909 198.577771 281.917215 202.539666 279.197828 206.067921 C 274.096497 212.414838 266.077283 211.784088 265.422249 211.724956 " stroke="#eb586e" stroke-width="4" stroke-opacity="1" stroke-miterlimit="4"/><path stroke-linecap="round" transform="matrix(0.196793, 0, 0, 0.198177, 146.989418, 153.208965)" fill="none" stroke-linejoin="round" d="M 128.460435 102.723562 C 129.055921 101.304376 129.790354 99.964033 130.663734 98.702534 C 131.556963 97.421324 132.54944 96.25838 133.680863 95.213701 C 134.812287 94.169022 136.042958 93.242609 137.353028 92.454172 C 138.682947 91.665735 140.072415 91.015275 141.541281 90.522502 C 143.010146 90.029729 144.498862 89.714354 146.027276 89.536956 C 147.57554 89.359558 149.103955 89.359558 150.632369 89.517245 C 152.180633 89.674932 153.669348 89.990307 155.138214 90.463369 C 156.60708 90.936431 158.016397 91.567181 159.346316 92.335907 " stroke="#eb586e" stroke-width="4" stroke-opacity="1" stroke-miterlimit="4"/><path stroke-linecap="round" transform="matrix(0.196793, 0, 0, 0.198177, 146.989418, 153.208965)" fill="none" stroke-linejoin="round" d="M 82.290409 154.996925 C 81.952967 156.002182 79.868765 162.230833 83.203488 167.533071 C 86.875652 173.328081 95.5896 175.732814 103.688211 172.125715 " stroke="#eb586e" stroke-width="4" stroke-opacity="1" stroke-miterlimit="4"/><path stroke-linecap="round" transform="matrix(0.196793, 0, 0, 0.198177, 146.989418, 153.208965)" fill="none" stroke-linejoin="round" d="M 112.382309 197.947022 C 115.875828 194.675009 119.607541 191.69866 123.577448 188.998264 C 131.755458 183.400362 140.409857 177.506797 152.001987 177.073156 C 157.401062 176.895758 162.601641 177.822171 167.603724 179.832685 " stroke="#eb586e" stroke-width="4" stroke-opacity="1" stroke-miterlimit="4"/><path stroke-linecap="round" transform="matrix(0.196793, 0, 0, 0.198177, 146.989418, 153.208965)" fill="none" stroke-linejoin="round" d="M 140.112114 179.537022 C 143.466686 175.989056 145.908179 171.908895 147.416744 167.276829 C 148.210725 164.852385 151.843191 153.61716 145.570737 143.446325 C 143.347588 139.858937 140.390007 137.000854 136.717843 134.872074 " stroke="#eb586e" stroke-width="4" stroke-opacity="1" stroke-miterlimit="4"/><path stroke-linecap="round" transform="matrix(0.196793, 0, 0, 0.198177, 146.989418, 153.208965)" fill="none" stroke-linejoin="round" d="M 107.836765 132.585608 C 118.555515 142.184826 132.033352 141.19928 136.936188 134.872074 C 141.501581 128.99822 137.888965 119.517267 137.551523 118.669697 " stroke="#eb586e" stroke-width="4" stroke-opacity="1" stroke-miterlimit="4"/><path stroke-linecap="round" transform="matrix(0.196793, 0, 0, 0.198177, 146.989418, 153.208965)" fill="none" stroke-linejoin="round" d="M 193.884513 95.430521 C 197.318483 94.839194 200.772303 94.661795 204.245972 94.937748 C 207.719641 95.19399 211.113912 95.864162 214.428785 96.948262 C 217.723808 98.052074 220.860035 99.530393 223.797767 101.40293 C 226.735499 103.275468 229.395337 105.46338 231.797131 108.006089 " stroke="#eb586e" stroke-width="4" stroke-opacity="1" stroke-miterlimit="4"/><path stroke-linecap="round" transform="matrix(0.196793, 0, 0, 0.198177, 146.989418, 153.208965)" fill="none" stroke-linejoin="round" d="M 133.621315 203.26897 C 133.164775 205.141508 132.211998 210.266347 134.990933 214.977258 C 138.802044 221.403018 148.230575 224.359656 157.698805 221.166487 " stroke="#eb586e" stroke-width="4" stroke-opacity="1" stroke-miterlimit="4"/><path stroke-linecap="round" transform="matrix(0.196793, 0, 0, 0.198177, 146.989418, 153.208965)" fill="none" stroke-linejoin="round" d="M 161.251872 206.659249 C 168.774847 205.378039 176.337521 204.924688 183.959744 205.279484 C 203.352743 206.166476 210.439028 211.82351 221.792964 210.778831 C 230.169469 209.990395 241.781449 205.476594 254.782896 188.07185 " stroke="#eb586e" stroke-width="4" stroke-opacity="1" stroke-miterlimit="4"/><path stroke-linecap="round" transform="matrix(0.196793, 0, 0, 0.198177, 146.989418, 153.208965)" fill="none" stroke-linejoin="round" d="M 181.002163 128.919376 C 195.174733 131.99428 200.395161 137.276807 202.320567 141.987717 C 204.801759 148.03897 201.625833 152.631614 202.18162 161.462107 C 202.816805 171.238724 207.560845 179.261069 212.582778 185.312321 " stroke="#eb586e" stroke-width="4" stroke-opacity="1" stroke-miterlimit="4"/><path stroke-linecap="round" transform="matrix(0.196793, 0, 0, 0.198177, 146.989418, 153.208965)" fill="none" stroke-linejoin="round" d="M 231.41999 173.623745 C 230.764955 178.985116 231.102397 184.267643 232.452166 189.491037 C 233.801934 194.714431 236.064782 199.504185 239.240708 203.860298 " stroke="#eb586e" stroke-width="4" stroke-opacity="1" stroke-miterlimit="4"/><path stroke-linecap="round" transform="matrix(0.196793, 0, 0, 0.198177, 146.989418, 153.208965)" fill="none" stroke-linejoin="round" d="M 105.216626 159.707835 C 104.14475 162.427942 103.628662 165.246604 103.708061 168.16382 C 103.827158 172.697332 105.196776 176.836625 107.836765 180.542278 " stroke="#eb586e" stroke-width="4" stroke-opacity="1" stroke-miterlimit="4"/><path stroke-linecap="round" transform="matrix(0.196793, 0, 0, 0.198177, 146.989418, 153.208965)" fill="none" stroke-linejoin="round" d="M 167.603724 152.375372 L 182.034339 157.717032 " stroke="#eb586e" stroke-width="4" stroke-opacity="1" stroke-miterlimit="4"/><path stroke-linecap="round" transform="matrix(0.196793, 0, 0, 0.198177, 146.989418, 153.208965)" fill="none" stroke-linejoin="round" d="M 93.604646 122.335929 C 93.604646 122.335929 85.049495 127.224237 89.932481 134.872074 " stroke="#eb586e" stroke-width="4" stroke-opacity="1" stroke-miterlimit="4"/><path stroke-linecap="round" transform="matrix(0.196793, 0, 0, 0.198177, 146.989418, 153.208965)" fill="none" stroke-linejoin="round" d="M 180.009686 106.133552 C 179.295102 105.601357 178.54082 105.148005 177.726989 104.793209 C 176.913158 104.438412 176.079477 104.201881 175.206097 104.063905 C 174.312868 103.925928 173.439488 103.886507 172.566109 103.985061 C 171.67288 104.063905 170.819349 104.261014 169.985669 104.576389 C 169.151988 104.872053 168.377856 105.285982 167.643423 105.798466 C 166.90899 106.291239 166.253956 106.882567 165.678319 107.552738 C 165.102682 108.222909 164.626293 108.952213 164.229303 109.760361 C 163.832312 110.548798 163.554418 111.376657 163.375773 112.243937 " stroke="#eb586e" stroke-width="4" stroke-opacity="1" stroke-miterlimit="4"/><path stroke-linecap="round" transform="matrix(0.196793, 0, 0, 0.198177, 146.989418, 153.208965)" fill="none" stroke-linejoin="round" d="M 224.770394 120.502813 C 224.770394 120.502813 229.970973 133.354333 243.42896 122.335929 " stroke="#eb586e" stroke-width="4" stroke-opacity="1" stroke-miterlimit="4"/><path stroke-linecap="round" transform="matrix(0.196793, 0, 0, 0.198177, 146.989418, 153.208965)" fill="none" stroke-linejoin="round" d="M 184.714026 175.831368 C 187.96935 178.196679 190.510091 181.153317 192.356098 184.701283 C 196.941342 193.63033 194.559397 202.421401 193.884513 204.589602 " stroke="#eb586e" stroke-width="4" stroke-opacity="1" stroke-miterlimit="4"/><path stroke-linecap="round" transform="matrix(0.196793, 0, 0, 0.198177, 146.989418, 153.208965)" fill="none" stroke-linejoin="round" d="M 160.100599 218.170427 C 158.453087 219.767011 157.639256 221.698682 157.659106 223.985149 C 157.798052 225.680288 158.393538 227.198029 159.465414 228.538371 C 160.537289 229.859003 161.906907 230.765705 163.534569 231.258478 " stroke="#eb586e" stroke-width="4" stroke-opacity="1" stroke-miterlimit="4"/><path stroke-linecap="round" transform="matrix(0.196793, 0, 0, 0.198177, 146.989418, 153.208965)" fill="none" stroke-linejoin="round" d="M 232.154423 126.692042 C 232.531564 127.421346 236.441923 135.088895 232.412467 143.13095 C 228.005869 151.941732 218.259746 152.868145 217.743658 152.907567 " stroke="#eb586e" stroke-width="4" stroke-opacity="1" stroke-miterlimit="4"/><path stroke-linecap="round" transform="matrix(0.196793, 0, 0, 0.198177, 146.989418, 153.208965)" fill="none" stroke-linejoin="round" d="M 245.632259 149.083648 C 247.795859 151.665779 249.02653 154.642128 249.304424 157.992985 C 249.820512 165.266315 244.877977 170.134912 244.143544 170.844505 " stroke="#eb586e" stroke-width="4" stroke-opacity="1" stroke-miterlimit="4"/><path fill="#000000" d="M 188.574219 203.148438 C 188.433594 202.464844 188.335938 201.773438 188.285156 201.078125 C 188.230469 200.324219 188.230469 199.570312 188.285156 198.8125 C 188.445312 198.800781 188.617188 198.792969 188.800781 198.792969 C 188.988281 198.792969 189.195312 198.804688 189.371094 198.820312 C 188.730469 200.191406 188.464844 201.636719 188.574219 203.148438 Z M 188.574219 203.148438 " fill-opacity="0.08" fill-rule="nonzero"/><g clip-path="url(#2337f88fcc)"><path fill="#094e80" d="M 216.847656 160.261719 L 183.027344 151.792969 C 181.890625 151.507812 180.710938 151.507812 179.597656 151.792969 L 145.753906 160.261719 C 145.164062 160.402344 145.164062 161.253906 145.753906 161.394531 L 162.378906 165.558594 C 171.792969 162.765625 181.914062 162.625 191.542969 164.328125 C 181.796875 163.238281 171.53125 164.089844 162.378906 167.617188 L 162.378906 172.371094 C 162.378906 172.769531 162.757812 173.03125 163.136719 172.914062 C 168.527344 171.257812 174.726562 170.289062 181.300781 170.289062 C 187.875 170.289062 194.070312 171.257812 199.488281 172.914062 C 199.867188 173.03125 200.222656 172.773438 200.222656 172.371094 L 200.222656 165.558594 L 207.480469 163.738281 L 207.480469 176.460938 L 207.363281 176.460938 C 207.105469 176.460938 206.890625 176.675781 206.890625 176.933594 L 206.890625 179.273438 C 206.890625 179.535156 207.105469 179.75 207.363281 179.75 L 208.78125 179.75 C 209.042969 179.75 209.253906 179.535156 209.253906 179.273438 L 209.253906 176.933594 C 209.253906 176.675781 209.042969 176.460938 208.78125 176.460938 L 208.664062 176.460938 L 208.664062 163.453125 L 216.847656 161.394531 C 217.460938 161.253906 217.460938 160.402344 216.847656 160.261719 Z M 216.847656 160.261719 " fill-opacity="1" fill-rule="nonzero"/></g><g clip-path="url(#13e8d695d2)"><g clip-path="url(#d606190c99)"><path fill="#ffde59" d="M 207.121094 175.824219 L 209.566406 175.824219 L 209.566406 179.914062 L 207.121094 179.914062 Z M 207.121094 175.824219 " fill-opacity="1" fill-rule="nonzero"/></g></g></svg>